<mxfile host="65bd71144e">
    <diagram id="IJAdkXBiWt1ftDGZ9WUL" name="PÃ¡gina-1">
        <mxGraphModel dx="1391" dy="1622" grid="1" gridSize="10" guides="1" tooltips="1" connect="1" arrows="1" fold="1" page="1" pageScale="1" pageWidth="827" pageHeight="1169" math="0" shadow="0">
            <root>
                <mxCell id="0"/>
                <mxCell id="1" parent="0"/>
                <mxCell id="2" value="&lt;font style=&quot;font-size: 36px ; line-height: 2.6&quot;&gt;Cliente&lt;/font&gt;" style="shape=folder;fontStyle=1;spacingTop=10;tabWidth=40;tabHeight=14;tabPosition=left;html=1;fontSize=22;strokeColor=default;strokeWidth=2;verticalAlign=top;" vertex="1" parent="1">
                    <mxGeometry x="-114.5" y="-35" width="960" height="1205" as="geometry"/>
                </mxCell>
                <mxCell id="3" value="User" style="shape=umlBoundary;whiteSpace=wrap;html=1;fillColor=#1ba1e2;strokeColor=#000000;strokeWidth=2;fontStyle=1;fontSize=22;verticalAlign=middle;fontColor=#ffffff;spacing=2;" vertex="1" parent="1">
                    <mxGeometry x="280" y="100" width="140" height="120" as="geometry"/>
                </mxCell>
                <mxCell id="4" style="edgeStyle=none;html=1;exitX=0.5;exitY=0;exitDx=0;exitDy=0;entryX=0.606;entryY=1.01;entryDx=0;entryDy=0;entryPerimeter=0;fontSize=22;endArrow=none;endFill=0;strokeWidth=2;" edge="1" parent="1" source="5" target="3">
                    <mxGeometry relative="1" as="geometry"/>
                </mxCell>
                <mxCell id="5" value="Proxy" style="swimlane;fontStyle=1;align=center;verticalAlign=bottom;childLayout=stackLayout;horizontal=1;startSize=26;horizontalStack=0;resizeParent=1;resizeParentMax=0;resizeLast=0;collapsible=1;marginBottom=0;fontSize=22;strokeColor=#000000;strokeWidth=2;fillColor=#1ba1e2;fontColor=#ffffff;" vertex="1" parent="1">
                    <mxGeometry x="-44.5" y="340" width="820" height="420" as="geometry"/>
                </mxCell>
                <mxCell id="6" value="- requestId : int&#10;- client : UDPClient" style="text;strokeColor=none;fillColor=none;align=left;verticalAlign=middle;spacingLeft=4;spacingRight=4;overflow=hidden;rotatable=0;points=[[0,0.5],[1,0.5]];portConstraint=eastwest;fontSize=22;fontStyle=0" vertex="1" parent="5">
                    <mxGeometry y="26" width="820" height="50" as="geometry"/>
                </mxCell>
                <mxCell id="7" value="- MAX_ENVIOS = 10: int" style="text;strokeColor=none;fillColor=none;align=left;verticalAlign=top;spacingLeft=4;spacingRight=4;overflow=hidden;rotatable=0;points=[[0,0.5],[1,0.5]];portConstraint=eastwest;fontSize=22;fontStyle=4" vertex="1" parent="5">
                    <mxGeometry y="76" width="820" height="34" as="geometry"/>
                </mxCell>
                <mxCell id="8" value="" style="line;strokeWidth=2;fillColor=none;align=left;verticalAlign=middle;spacingTop=-1;spacingLeft=3;spacingRight=3;rotatable=0;labelPosition=right;points=[];portConstraint=eastwest;fontSize=22;" vertex="1" parent="5">
                    <mxGeometry y="110" width="820" height="8" as="geometry"/>
                </mxCell>
                <mxCell id="9" value="+ Proxy()" style="text;strokeColor=none;fillColor=none;align=left;verticalAlign=middle;spacingLeft=4;spacingRight=4;overflow=hidden;rotatable=0;points=[[0,0.5],[1,0.5]];portConstraint=eastwest;fontSize=22;" vertex="1" parent="5">
                    <mxGeometry y="118" width="820" height="26" as="geometry"/>
                </mxCell>
                <mxCell id="10" value="+ adicionarContato(contato : Contato) : boolean" style="text;strokeColor=none;fillColor=none;align=left;verticalAlign=middle;spacingLeft=4;spacingRight=4;overflow=hidden;rotatable=0;points=[[0,0.5],[1,0.5]];portConstraint=eastwest;fontSize=22;" vertex="1" parent="5">
                    <mxGeometry y="144" width="820" height="26" as="geometry"/>
                </mxCell>
                <mxCell id="11" value="+ listarContatos(): List&lt;Contato&gt;" style="text;strokeColor=none;fillColor=none;align=left;verticalAlign=middle;spacingLeft=4;spacingRight=4;overflow=hidden;rotatable=0;points=[[0,0.5],[1,0.5]];portConstraint=eastwest;fontSize=22;" vertex="1" parent="5">
                    <mxGeometry y="170" width="820" height="26" as="geometry"/>
                </mxCell>
                <mxCell id="12" value="+ procurarContatos(contato : Contato) : List&lt;Contato&gt;" style="text;strokeColor=none;fillColor=none;align=left;verticalAlign=middle;spacingLeft=4;spacingRight=4;overflow=hidden;rotatable=0;points=[[0,0.5],[1,0.5]];portConstraint=eastwest;fontSize=22;" vertex="1" parent="5">
                    <mxGeometry y="196" width="820" height="26" as="geometry"/>
                </mxCell>
                <mxCell id="13" value="+ editarContato(contato : Contato) : boolean" style="text;strokeColor=none;fillColor=none;align=left;verticalAlign=middle;spacingLeft=4;spacingRight=4;overflow=hidden;rotatable=0;points=[[0,0.5],[1,0.5]];portConstraint=eastwest;fontSize=22;" vertex="1" parent="5">
                    <mxGeometry y="222" width="820" height="26" as="geometry"/>
                </mxCell>
                <mxCell id="14" value="+ removerContato(contato : Contato) : boolean" style="text;strokeColor=none;fillColor=none;align=left;verticalAlign=middle;spacingLeft=4;spacingRight=4;overflow=hidden;rotatable=0;points=[[0,0.5],[1,0.5]];portConstraint=eastwest;fontSize=22;" vertex="1" parent="5">
                    <mxGeometry y="248" width="820" height="26" as="geometry"/>
                </mxCell>
                <mxCell id="15" value="+ limparAgenda() : boolean" style="text;strokeColor=none;fillColor=none;align=left;verticalAlign=middle;spacingLeft=4;spacingRight=4;overflow=hidden;rotatable=0;points=[[0,0.5],[1,0.5]];portConstraint=eastwest;fontSize=22;" vertex="1" parent="5">
                    <mxGeometry y="274" width="820" height="30" as="geometry"/>
                </mxCell>
                <mxCell id="16" value="+ finaliza() : void" style="text;strokeColor=none;fillColor=none;align=left;verticalAlign=middle;spacingLeft=4;spacingRight=4;overflow=hidden;rotatable=0;points=[[0,0.5],[1,0.5]];portConstraint=eastwest;fontSize=22;" vertex="1" parent="5">
                    <mxGeometry y="304" width="820" height="26" as="geometry"/>
                </mxCell>
                <mxCell id="17" value="+ empacotaMenssagem(objRef : String, method : String, args : ByteString) : byte[ ]" style="text;strokeColor=none;fillColor=none;align=left;verticalAlign=middle;spacingLeft=4;spacingRight=4;overflow=hidden;rotatable=0;points=[[0,0.5],[1,0.5]];portConstraint=eastwest;fontSize=22;" vertex="1" parent="5">
                    <mxGeometry y="330" width="820" height="30" as="geometry"/>
                </mxCell>
                <mxCell id="18" value="+ desempacotaMenssagem(resposta : byte[ ]) : Message" style="text;strokeColor=none;fillColor=none;align=left;verticalAlign=middle;spacingLeft=4;spacingRight=4;overflow=hidden;rotatable=0;points=[[0,0.5],[1,0.5]];portConstraint=eastwest;fontSize=22;" vertex="1" parent="5">
                    <mxGeometry y="360" width="820" height="26" as="geometry"/>
                </mxCell>
                <mxCell id="19" value="+ doOperation(objectRef : String, method : String, args : ByteString) : byte[ ]" style="text;strokeColor=none;fillColor=none;align=left;verticalAlign=top;spacingLeft=4;spacingRight=4;overflow=hidden;rotatable=0;points=[[0,0.5],[1,0.5]];portConstraint=eastwest;fontSize=22;" vertex="1" parent="5">
                    <mxGeometry y="386" width="820" height="34" as="geometry"/>
                </mxCell>
                <mxCell id="20" style="edgeStyle=none;html=1;exitX=0.5;exitY=0;exitDx=0;exitDy=0;fontSize=22;endArrow=none;endFill=0;strokeWidth=2;" edge="1" parent="1" source="21" target="19">
                    <mxGeometry relative="1" as="geometry"/>
                </mxCell>
                <mxCell id="21" value="UDPClient" style="swimlane;fontStyle=1;align=center;verticalAlign=middle;childLayout=stackLayout;horizontal=1;startSize=26;horizontalStack=0;resizeParent=1;resizeParentMax=0;resizeLast=0;collapsible=1;marginBottom=0;fontSize=22;strokeColor=#000000;strokeWidth=2;fillColor=#1ba1e2;fontColor=#ffffff;" vertex="1" parent="1">
                    <mxGeometry x="130.5" y="840" width="470" height="280" as="geometry"/>
                </mxCell>
                <mxCell id="22" value="- socket : DatagramSocket&#10;- aHost : InetAddress&#10;- serverPort : int&#10;- request : DatagramPacket&#10;- reply : DatagramPacket" style="text;strokeColor=none;fillColor=none;align=left;verticalAlign=middle;spacingLeft=4;spacingRight=4;overflow=hidden;rotatable=0;points=[[0,0.5],[1,0.5]];portConstraint=eastwest;fontSize=22;" vertex="1" parent="21">
                    <mxGeometry y="26" width="470" height="134" as="geometry"/>
                </mxCell>
                <mxCell id="23" value="" style="line;strokeWidth=2;fillColor=none;align=left;verticalAlign=middle;spacingTop=-1;spacingLeft=3;spacingRight=3;rotatable=0;labelPosition=right;points=[];portConstraint=eastwest;fontSize=22;" vertex="1" parent="21">
                    <mxGeometry y="160" width="470" height="8" as="geometry"/>
                </mxCell>
                <mxCell id="24" value="+ UDPClient()&#10;+ sendRequest(byte[ ] msg) : void&#10;+ getResponse() : byte[ ]&#10;+ close() : void" style="text;strokeColor=none;fillColor=none;align=left;verticalAlign=middle;spacingLeft=4;spacingRight=4;overflow=hidden;rotatable=0;points=[[0,0.5],[1,0.5]];portConstraint=eastwest;fontSize=22;" vertex="1" parent="21">
                    <mxGeometry y="168" width="470" height="112" as="geometry"/>
                </mxCell>
            </root>
        </mxGraphModel>
    </diagram>
</mxfile>